# xmcd
#
# Track frame offsets:
#       150
#       15977
#       30135
#       41932
#       56487
#       73055
#       85437
#       101565
#       115342
#       129260
#       142442
#       157655
#       172680
#       188692
#
# Disc length: 2696 seconds
#
# Revision: 0
# Processed by: cddbd v1.4PL0 Copyright (c) Steve Scherf et al.
# Submitted via: CD-DA_X-Tractor v0.21
#
DISCID=af0a860e
DTITLE=Liu e Léu - Tardes Morenas de Mato Grosso
DYEAR=1900
DGENRE=
TTITLE0=Ipê e o prisioneiro
TTITLE1=Porta
TTITLE2=Tardes Morenas de Mato Grosso
TTITLE3=Cabo Mesquita
TTITLE4=Vinte e Cinco de Dezembro
TTITLE5=Colheita de Dor
TTITLE6=Cadeia de Papel
TTITLE7=Rosto de Deus
TTITLE8=Quinhentas Noites
TTITLE9=Pousada dos Treis Coqueiros
TTITLE10=Fazenda São Francisco
TTITLE11=Boiadeiro Errante
TTITLE12=Rainha do Paraná
TTITLE13=Morena do Sul de Minas
EXTD=
EXTT0=
EXTT1=
EXTT2=
EXTT3=
EXTT4=
EXTT5=
EXTT6=
EXTT7=
EXTT8=
EXTT9=
EXTT10=
EXTT11=
EXTT12=
EXTT13=
PLAYORDER=
